<svg width="33" height="32" viewBox="0 0 33 32" xmlns="http://www.w3.org/2000/svg">
	<path d="M16.5 3.2C9.4434 3.2 3.70001 8.94339 3.70001 16C3.70001 23.0566 9.4434 28.8 16.5 28.8C23.5566 28.8 29.3 23.0566 29.3 16C29.3 8.94339 23.5566 3.2 16.5 3.2ZM16.5 5.33333C22.4037 5.33333 27.1667 10.0963 27.1667 16C27.1667 21.9037 22.4037 26.6667 16.5 26.6667C10.5963 26.6667 5.83335 21.9037 5.83335 16C5.83335 10.0963 10.5963 5.33333 16.5 5.33333ZM11.7 13.8667C11.2757 13.8667 10.8687 14.0352 10.5686 14.3353C10.2686 14.6354 10.1 15.0423 10.1 15.4667C10.1 15.891 10.2686 16.298 10.5686 16.598C10.8687 16.8981 11.2757 17.0667 11.7 17.0667C12.1244 17.0667 12.5313 16.8981 12.8314 16.598C13.1314 16.298 13.3 15.891 13.3 15.4667C13.3 15.0423 13.1314 14.6354 12.8314 14.3353C12.5313 14.0352 12.1244 13.8667 11.7 13.8667ZM21.3 13.8667C20.8757 13.8667 20.4687 14.0352 20.1686 14.3353C19.8686 14.6354 19.7 15.0423 19.7 15.4667C19.7 15.891 19.8686 16.298 20.1686 16.598C20.4687 16.8981 20.8757 17.0667 21.3 17.0667C21.7244 17.0667 22.1313 16.8981 22.4314 16.598C22.7314 16.298 22.9 15.891 22.9 15.4667C22.9 15.0423 22.7314 14.6354 22.4314 14.3353C22.1313 14.0352 21.7244 13.8667 21.3 13.8667ZM12.3 20.2667C12.1587 20.2647 12.0183 20.2908 11.8872 20.3435C11.756 20.3962 11.6366 20.4744 11.536 20.5737C11.4353 20.6729 11.3554 20.7912 11.3008 20.9216C11.2462 21.052 11.2182 21.192 11.2182 21.3333C11.2182 21.4747 11.2462 21.6146 11.3008 21.745C11.3554 21.8755 11.4353 21.9937 11.536 22.093C11.6366 22.1922 11.756 22.2705 11.8872 22.3232C12.0183 22.3759 12.1587 22.402 12.3 22.4H20.7C20.8414 22.402 20.9817 22.3759 21.1129 22.3232C21.244 22.2705 21.3634 22.1922 21.4641 22.093C21.5647 21.9937 21.6447 21.8755 21.6992 21.745C21.7538 21.6146 21.7819 21.4747 21.7819 21.3333C21.7819 21.192 21.7538 21.052 21.6992 20.9216C21.6447 20.7912 21.5647 20.6729 21.4641 20.5737C21.3634 20.4744 21.244 20.3962 21.1129 20.3435C20.9817 20.2908 20.8414 20.2647 20.7 20.2667H12.3Z"/>
</svg>
