<svg width="33" height="32" viewBox="0 0 33 32" xmlns="http://www.w3.org/2000/svg"><path d="M16.5 3.2C9.44339 3.2 3.7 8.94339 3.7 16C3.7 23.0566 9.44339 28.8 16.5 28.8C23.5566 28.8 29.3 23.0566 29.3 16C29.3 8.94339 23.5566 3.2 16.5 3.2ZM16.5 5.33333C22.4037 5.33333 27.1667 10.0963 27.1667 16C27.1667 21.9037 22.4037 26.6667 16.5 26.6667C10.5963 26.6667 5.83333 21.9037 5.83333 16C5.83333 10.0963 10.5963 5.33333 16.5 5.33333ZM11.7 13.8667C11.2757 13.8667 10.8687 14.0352 10.5686 14.3353C10.2686 14.6354 10.1 15.0423 10.1 15.4667C10.1 15.891 10.2686 16.298 10.5686 16.598C10.8687 16.8981 11.2757 17.0667 11.7 17.0667C12.1243 17.0667 12.5313 16.8981 12.8314 16.598C13.1314 16.298 13.3 15.891 13.3 15.4667C13.3 15.0423 13.1314 14.6354 12.8314 14.3353C12.5313 14.0352 12.1243 13.8667 11.7 13.8667ZM21.3 13.8667C20.8757 13.8667 20.4687 14.0352 20.1686 14.3353C19.8686 14.6354 19.7 15.0423 19.7 15.4667C19.7 15.891 19.8686 16.298 20.1686 16.598C20.4687 16.8981 20.8757 17.0667 21.3 17.0667C21.7243 17.0667 22.1313 16.8981 22.4314 16.598C22.7314 16.298 22.9 15.891 22.9 15.4667C22.9 15.0423 22.7314 14.6354 22.4314 14.3353C22.1313 14.0352 21.7243 13.8667 21.3 13.8667Z"/><path d="M14.4536 20.45C15.7908 19.5459 17.8715 18.6667 20.7515 18.6667C20.8928 18.6647 21.0331 18.6908 21.1643 18.7435C21.2955 18.7962 21.4149 18.8744 21.5155 18.9737C21.6162 19.0729 21.6961 19.1912 21.7507 19.3216C21.8052 19.452 21.8333 19.592 21.8333 19.7333C21.8333 19.8747 21.8052 20.0146 21.7507 20.145C21.6961 20.2755 21.6162 20.3937 21.5155 20.493C21.4149 20.5922 21.2955 20.6705 21.1643 20.7232C21.0331 20.7759 20.8928 20.802 20.7515 20.8C18.2981 20.8 16.6786 21.5208 15.6494 22.2167C14.6202 22.9125 14.2473 23.5125 14.2473 23.5125C14.1717 23.6312 14.0734 23.7337 13.958 23.8143C13.8426 23.8948 13.7125 23.9517 13.575 23.9817C13.4375 24.0117 13.2955 24.0142 13.157 23.9891C13.0186 23.964 12.8865 23.9117 12.7683 23.8353C12.6502 23.7589 12.5483 23.6599 12.4686 23.544C12.3888 23.428 12.3328 23.2975 12.3037 23.1598C12.2747 23.0221 12.2731 22.8801 12.2992 22.7418C12.3253 22.6035 12.3784 22.4718 12.4556 22.3542C12.4556 22.3542 13.1163 21.3541 14.4536 20.45Z"/></svg>
