<svg width="33" height="32" viewBox="0 0 33 32" xmlns="http://www.w3.org/2000/svg">
	<path d="M16.5 3.2C9.4434 3.2 3.70001 8.94339 3.70001 16C3.70001 23.0566 9.4434 28.8 16.5 28.8C23.5566 28.8 29.3 23.0566 29.3 16C29.3 8.94339 23.5566 3.2 16.5 3.2ZM16.5 5.33333C22.4037 5.33333 27.1667 10.0963 27.1667 16C27.1667 21.9037 22.4037 26.6667 16.5 26.6667C10.5963 26.6667 5.83335 21.9037 5.83335 16C5.83335 10.0963 10.5963 5.33333 16.5 5.33333ZM11.7 13.8667C11.2757 13.8667 10.8687 14.0352 10.5686 14.3353C10.2686 14.6354 10.1 15.0423 10.1 15.4667C10.1 15.891 10.2686 16.298 10.5686 16.598C10.8687 16.8981 11.2757 17.0667 11.7 17.0667C12.1244 17.0667 12.5313 16.8981 12.8314 16.598C13.1314 16.298 13.3 15.891 13.3 15.4667C13.3 15.0423 13.1314 14.6354 12.8314 14.3353C12.5313 14.0352 12.1244 13.8667 11.7 13.8667ZM21.3 13.8667C20.8757 13.8667 20.4687 14.0352 20.1686 14.3353C19.8686 14.6354 19.7 15.0423 19.7 15.4667C19.7 15.891 19.8686 16.298 20.1686 16.598C20.4687 16.8981 20.8757 17.0667 21.3 17.0667C21.7244 17.0667 22.1313 16.8981 22.4314 16.598C22.7314 16.298 22.9 15.891 22.9 15.4667C22.9 15.0423 22.7314 14.6354 22.4314 14.3353C22.1313 14.0352 21.7244 13.8667 21.3 13.8667ZM13.2938 20.2583C13.0726 20.2707 12.8607 20.3517 12.6876 20.49C12.5145 20.6283 12.3888 20.8171 12.3279 21.0301C12.267 21.2431 12.2739 21.4698 12.3476 21.6787C12.4214 21.8876 12.5584 22.0683 12.7396 22.1958C13.5975 22.8193 14.8822 23.4667 16.5 23.4667C18.1178 23.4667 19.403 22.8199 20.2604 22.1958C20.3737 22.1134 20.4697 22.0094 20.5428 21.8898C20.6159 21.7703 20.6648 21.6375 20.6866 21.499C20.7084 21.3606 20.7027 21.2192 20.6698 21.083C20.637 20.9467 20.5776 20.8183 20.4951 20.705C20.4126 20.5917 20.3086 20.4958 20.189 20.4227C20.0694 20.3496 19.9366 20.3008 19.7981 20.2791C19.6597 20.2573 19.5183 20.2631 19.3821 20.296C19.2459 20.3289 19.1174 20.3883 19.0042 20.4708C18.396 20.9135 17.5489 21.3333 16.5 21.3333C15.4511 21.3333 14.6036 20.914 13.9938 20.4708C13.8218 20.3418 13.6148 20.2677 13.4 20.2583C13.3646 20.2566 13.3292 20.2566 13.2938 20.2583Z"/>
</svg>
