<svg width="32" height="32" viewBox="0 0 32 32" fill="none" xmlns="http://www.w3.org/2000/svg">
<path d="M16 3.20001C8.94339 3.20001 3.2 8.9434 3.2 16C3.2 23.0566 8.94339 28.8 16 28.8C23.0566 28.8 28.8 23.0566 28.8 16C28.8 8.9434 23.0566 3.20001 16 3.20001ZM16 5.33335C21.9037 5.33335 26.6667 10.0963 26.6667 16C26.6667 21.9037 21.9037 26.6667 16 26.6667C10.0963 26.6667 5.33333 21.9037 5.33333 16C5.33333 10.0963 10.0963 5.33335 16 5.33335ZM11.2 13.8667C10.7757 13.8667 10.3687 14.0352 10.0686 14.3353C9.76857 14.6354 9.6 15.0423 9.6 15.4667C9.6 15.891 9.76857 16.298 10.0686 16.598C10.3687 16.8981 10.7757 17.0667 11.2 17.0667C11.6243 17.0667 12.0313 16.8981 12.3314 16.598C12.6314 16.298 12.8 15.891 12.8 15.4667C12.8 15.0423 12.6314 14.6354 12.3314 14.3353C12.0313 14.0352 11.6243 13.8667 11.2 13.8667ZM20.8 13.8667C20.3757 13.8667 19.9687 14.0352 19.6686 14.3353C19.3686 14.6354 19.2 15.0423 19.2 15.4667C19.2 15.891 19.3686 16.298 19.6686 16.598C19.9687 16.8981 20.3757 17.0667 20.8 17.0667C21.2243 17.0667 21.6313 16.8981 21.9314 16.598C22.2314 16.298 22.4 15.891 22.4 15.4667C22.4 15.0423 22.2314 14.6354 21.9314 14.3353C21.6313 14.0352 21.2243 13.8667 20.8 13.8667ZM16 19.2C14.3822 19.2 13.097 19.8468 12.2396 20.4708C12.0109 20.6375 11.8578 20.8881 11.8139 21.1676C11.77 21.4471 11.8389 21.7326 12.0055 21.9613C12.172 22.19 12.4226 22.3432 12.7021 22.3872C12.9816 22.4311 13.2671 22.3623 13.4958 22.1958C14.104 21.7532 14.9511 21.3333 16 21.3333C17.0489 21.3333 17.896 21.7532 18.5042 22.1958C18.6174 22.2784 18.7458 22.3378 18.8821 22.3707C19.0183 22.4036 19.1597 22.4093 19.2981 22.3876C19.4366 22.3659 19.5694 22.317 19.689 22.244C19.8085 22.1709 19.9126 22.075 19.9951 21.9617C20.0776 21.8484 20.1369 21.7199 20.1698 21.5837C20.2027 21.4475 20.2084 21.3061 20.1866 21.1676C20.1648 21.0292 20.1159 20.8964 20.0428 20.7769C19.9697 20.6573 19.8737 20.5533 19.7604 20.4708C18.903 19.8468 17.6178 19.2 16 19.2Z" fill="#1B2734"/>
</svg>
