<svg width="33" height="32" viewBox="0 0 33 32" xmlns="http://www.w3.org/2000/svg">
	<path d="M16.5 3.2C9.4434 3.2 3.70001 8.94339 3.70001 16C3.70001 23.0566 9.4434 28.8 16.5 28.8C23.5566 28.8 29.3 23.0566 29.3 16C29.3 8.94339 23.5566 3.2 16.5 3.2ZM16.5 5.33333C22.4037 5.33333 27.1667 10.0963 27.1667 16C27.1667 21.9037 22.4037 26.6667 16.5 26.6667C10.5963 26.6667 5.83335 21.9037 5.83335 16C5.83335 10.0963 10.5963 5.33333 16.5 5.33333ZM10.1 13.8667C9.95867 13.8647 9.81833 13.8908 9.68717 13.9435C9.556 13.9962 9.43662 14.0744 9.33596 14.1737C9.2353 14.2729 9.15536 14.3912 9.10081 14.5216C9.04625 14.652 9.01815 14.792 9.01815 14.9333C9.01815 15.0747 9.04625 15.2146 9.10081 15.345C9.15536 15.4755 9.2353 15.5937 9.33596 15.693C9.43662 15.7922 9.556 15.8705 9.68717 15.9232C9.81833 15.9759 9.95867 16.002 10.1 16H13.3C13.4414 16.002 13.5817 15.9759 13.7129 15.9232C13.844 15.8705 13.9634 15.7922 14.0641 15.693C14.1647 15.5937 14.2447 15.4755 14.2992 15.345C14.3538 15.2146 14.3819 15.0747 14.3819 14.9333C14.3819 14.792 14.3538 14.652 14.2992 14.5216C14.2447 14.3912 14.1647 14.2729 14.0641 14.1737C13.9634 14.0744 13.844 13.9962 13.7129 13.9435C13.5817 13.8908 13.4414 13.8647 13.3 13.8667H10.1ZM19.7 13.8667C19.5587 13.8647 19.4183 13.8908 19.2872 13.9435C19.156 13.9962 19.0366 14.0744 18.936 14.1737C18.8353 14.2729 18.7554 14.3912 18.7008 14.5216C18.6462 14.652 18.6182 14.792 18.6182 14.9333C18.6182 15.0747 18.6462 15.2146 18.7008 15.345C18.7554 15.4755 18.8353 15.5937 18.936 15.693C19.0366 15.7922 19.156 15.8705 19.2872 15.9232C19.4183 15.9759 19.5587 16.002 19.7 16H22.9C23.0414 16.002 23.1817 15.9759 23.3129 15.9232C23.444 15.8705 23.5634 15.7922 23.6641 15.693C23.7647 15.5937 23.8447 15.4755 23.8992 15.345C23.9538 15.2146 23.9819 15.0747 23.9819 14.9333C23.9819 14.792 23.9538 14.652 23.8992 14.5216C23.8447 14.3912 23.7647 14.2729 23.6641 14.1737C23.5634 14.0744 23.444 13.9962 23.3129 13.9435C23.1817 13.8908 23.0414 13.8647 22.9 13.8667H19.7ZM11.1667 19.2C11.1667 22.1451 13.5549 24.5333 16.5 24.5333C19.4451 24.5333 21.8333 22.1451 21.8333 19.2H11.1667Z"/>
</svg>
